{
    "asset" : {
        "generator" : "Khronos glTF Blender I/O v1.5.17",
        "version" : "2.0"
    },
    "scene" : 0,
    "scenes" : [
        {
            "name" : "Scene",
            "nodes" : [
                0
            ]
        }
    ],
    "nodes" : [
        {
            "mesh" : 0,
            "name" : "Cube",
            "scale" : [
                2,
                2,
                2
            ]
        }
    ],
    "materials" : [
        {
            "doubleSided" : true,
            "name" : "Material",
            "pbrMetallicRoughness" : {
                "baseColorFactor" : [
                    0.003095438936725259,
                    5.512391362572089e-05,
                    0,
                    1
                ],
                "metallicFactor" : 0,
                "roughnessFactor" : 0.4000000059604645
            }
        }
    ],
    "meshes" : [
        {
            "name" : "Cube.001",
            "primitives" : [
                {
                    "attributes" : {
                        "POSITION" : 0,
                        "NORMAL" : 1,
                        "TEXCOORD_0" : 2
                    },
                    "indices" : 3,
                    "material" : 0
                }
            ]
        }
    ],
    "accessors" : [
        {
            "bufferView" : 0,
            "componentType" : 5126,
            "count" : 13392,
            "max" : [
                0.5950000286102295,
                0.5950000286102295,
                0.5950000286102295
            ],
            "min" : [
                -0.5950000286102295,
                -0.5950000286102295,
                -0.5950000286102295
            ],
            "type" : "VEC3"
        },
        {
            "bufferView" : 1,
            "componentType" : 5126,
            "count" : 13392,
            "type" : "VEC3"
        },
        {
            "bufferView" : 2,
            "componentType" : 5126,
            "count" : 13392,
            "type" : "VEC2"
        },
        {
            "bufferView" : 3,
            "componentType" : 5123,
            "count" : 29808,
            "type" : "SCALAR"
        }
    ],
    "bufferViews" : [
        {
            "buffer" : 0,
            "byteLength" : 160704,
            "byteOffset" : 0
        },
        {
            "buffer" : 0,
            "byteLength" : 160704,
            "byteOffset" : 160704
        },
        {
            "buffer" : 0,
            "byteLength" : 107136,
            "byteOffset" : 321408
        },
        {
            "buffer" : 0,
            "byteLength" : 59616,
            "byteOffset" : 428544
        }
    ],
    "buffers" : [
        {
            "byteLength" : 488160,
            "uri" : "data:application/octet-stream;base64,"
        }
    ]
}
